<?xml version="1.0" encoding="UTF-8"?>
<svg version="1.1" xmlns="http://www.w3.org/2000/svg" width="1200" height="630">
<path d="M0 0 C396 0 792 0 1200 0 C1200 207.9 1200 415.8 1200 630 C804 630 408 630 0 630 C0 422.1 0 214.2 0 0 Z " fill="#F7F7F7" transform="translate(0,0)"/>
<path d="M0 0 C0.99096857 -0.00297112 1.98193713 -0.00594224 3.00293505 -0.0090034 C6.29172991 -0.01760827 9.58048803 -0.01919164 12.86929321 -0.02069092 C15.24075395 -0.02532499 17.61221395 -0.03035044 19.9836731 -0.03573608 C27.07454237 -0.05016838 34.1654038 -0.05623755 41.25628513 -0.0611316 C44.60875052 -0.06371937 47.96121447 -0.06750849 51.31367874 -0.07125092 C62.47967311 -0.08343481 73.64566562 -0.09373528 84.81166649 -0.09712601 C85.8810585 -0.09745536 85.8810585 -0.09745536 86.9720544 -0.09779136 C88.04379474 -0.09811878 88.04379474 -0.09811878 89.13718641 -0.09845281 C90.58467253 -0.09889625 92.03215865 -0.09934281 93.47964478 -0.09979248 C94.19762574 -0.10001391 94.91560671 -0.10023534 95.65534468 -0.10046348 C107.26730216 -0.10440445 118.87919662 -0.12184099 130.4911298 -0.145152 C142.45502321 -0.16897273 154.41888514 -0.18133273 166.38280261 -0.18249393 C173.08304366 -0.18340479 179.78319014 -0.18933381 186.48340988 -0.20731354 C192.79543408 -0.22392299 199.10730363 -0.22588788 205.41934204 -0.21717453 C207.71971682 -0.21641094 210.02010037 -0.2206558 212.32045364 -0.23063278 C242.88465184 -0.35528504 273.13426032 3.46169882 296.10610962 25.56793213 C297.61183774 27.07200509 299.08967864 28.59735777 300.55532837 30.14044189 C301.37646118 31.00282471 302.19759399 31.86520752 303.04360962 32.75372314 C320.26848559 52.35854743 325.72018221 77.13111888 325.69577026 102.59184265 C325.70022695 104.07935385 325.70022695 104.07935385 325.70477366 105.59691578 C325.71337857 108.88804462 325.7149619 112.17913673 325.71646118 115.47027588 C325.72109523 117.84335913 325.72612067 120.21644165 325.73150635 122.58952332 C325.74593812 129.68483668 325.75200752 136.78014221 325.75690186 143.87546763 C325.75948949 147.2295562 325.7632786 150.58364334 325.76702118 153.93773079 C325.7792045 165.10801638 325.78950541 176.2783001 325.79289627 187.44859219 C325.79311584 188.16177176 325.7933354 188.87495133 325.79356162 189.60974241 C325.7937799 190.32449143 325.79399818 191.03924045 325.79422307 191.77564853 C325.79466651 193.22366234 325.79511308 194.67167614 325.79556274 196.11968994 C325.79578417 196.83793322 325.7960056 197.5561765 325.79623374 198.29618473 C325.80017567 209.91528426 325.81761537 221.53432086 325.84092227 233.15339612 C325.86473554 245.12293476 325.87710264 257.09244195 325.87826419 269.06200463 C325.87917541 275.76612616 325.88511331 282.47015321 325.9030838 289.17425346 C325.91968172 295.48873688 325.9216636 301.80306566 325.91294479 308.11756325 C325.91218062 310.41997062 325.91643404 312.72238672 325.92640305 315.02477264 C326.06528043 349.13138357 320.01899249 377.57607705 295.96548462 402.86309814 C272.30346341 425.88464359 240.5219745 428.61394192 209.16958618 428.54449463 C206.80313803 428.55021332 204.43669263 428.5571833 202.07025146 428.56529236 C195.70634249 428.5830748 189.34257252 428.58208354 182.97864628 428.57634997 C178.98707607 428.57402318 174.99552645 428.57627297 171.00395966 428.58082771 C170.33683487 428.58157614 169.66971009 428.58232456 168.98236941 428.58309566 C167.6261569 428.58462748 166.2699444 428.58616583 164.9137319 428.58771063 C152.25612006 428.60137131 139.59857038 428.59604386 126.94096002 428.58452541 C115.42283914 428.57460266 103.90487912 428.58752862 92.38678303 428.61145961 C80.49034035 428.63598579 68.59397216 428.64542539 56.69750476 428.63880688 C50.04646916 428.63534408 43.39553881 428.63769562 36.74451447 428.65505791 C30.48317526 428.67069293 24.22213955 428.66639063 17.96081161 428.64775276 C15.68468909 428.64411199 13.40854323 428.64704044 11.13244247 428.65763855 C-9.85208512 428.74776298 -31.34150724 427.57322332 -50.44467163 418.14044189 C-51.39857788 417.70087158 -52.35248413 417.26130127 -53.33529663 416.80841064 C-74.64634745 406.24421831 -89.55728517 386.34685166 -97.19467163 364.24200439 C-101.14224933 351.93241705 -102.60017139 338.8983118 -102.5783844 326.02288818 C-102.58064996 325.03095506 -102.58291551 324.03902194 -102.58524972 323.01703024 C-102.59155831 319.70724402 -102.59076237 316.39749907 -102.5899353 313.08770752 C-102.59292884 310.70857694 -102.59633181 308.32944684 -102.60011292 305.95031738 C-102.60802312 300.16546263 -102.61116684 294.3806203 -102.61172529 288.59576041 C-102.61220166 283.88784902 -102.61426244 279.17994097 -102.61742592 274.47203064 C-102.62622841 261.0979878 -102.63084618 247.72395297 -102.63009544 234.34990722 C-102.63005549 233.6298071 -102.63001553 232.90970698 -102.62997437 232.16778564 C-102.62993348 231.44679662 -102.6298926 230.72580759 -102.62985048 229.98297042 C-102.62944461 218.31572738 -102.63900039 206.6485167 -102.65311273 194.98128301 C-102.6675186 182.97569844 -102.67438054 170.97012961 -102.67351896 158.96453619 C-102.67318833 152.23481069 -102.67607334 145.50512416 -102.68669701 138.77540588 C-102.69642681 132.43883771 -102.69642384 126.10234075 -102.68918037 119.76576996 C-102.68814044 117.45040024 -102.69046197 115.13502597 -102.69654083 112.819664 C-102.72696114 100.42187974 -102.44138519 88.39545337 -100.44467163 76.14044189 C-100.26379092 75.02164894 -100.08291021 73.90285599 -99.89654827 72.75016022 C-96.14318849 51.42699765 -82.05055644 31.33241809 -64.88217163 18.57794189 C-45.05786495 5.3206295 -23.65987984 -0.02270242 0 0 Z " fill="#BB0000" transform="translate(488.4446716308594,100.85955810546875)"/>
<path d="M0 0 C-0.0882605 0.60429337 -0.176521 1.20858673 -0.26745605 1.83119202 C-2.45006279 17.08781764 -3.56576866 32.03026972 -3.5 47.4375 C-3.49923462 48.49405792 -3.49846924 49.55061584 -3.49768066 50.63919067 C-3.43764818 74.02380012 -1.14602094 97.04727153 1.66748047 120.23864746 C2.28832285 125.39432866 2.8754828 130.55388504 3.46405029 135.71333313 C3.88019858 139.35830836 4.30092614 143.00237673 4.74316406 146.64428711 C6.60770198 162.28997707 7.18661563 177.75900066 7.18530273 193.49926758 C7.18749439 196.42999706 7.20574612 199.36035194 7.22460938 202.29101562 C7.25817404 213.70041837 6.61640278 224.70219534 5 236 C4.8548999 237.17280518 4.7097998 238.34561035 4.56030273 239.55395508 C3.46691216 248.37769576 0.92952241 256.64475795 -2 265 C-2.22171875 265.63728027 -2.4434375 266.27456055 -2.671875 266.93115234 C-6.27262323 277.07657449 -11.1380474 286.01167268 -17 295 C-17.39574219 295.74121094 -17.79148437 296.48242188 -18.19921875 297.24609375 C-21.23359708 300.2014861 -25.10010482 300.82673907 -29.125 301.875 C-30.06239014 302.12838135 -30.99978027 302.3817627 -31.96557617 302.64282227 C-34.97271176 303.44613049 -37.98574035 304.22390244 -41 305 C-41.92087402 305.24508301 -42.84174805 305.49016602 -43.79052734 305.74267578 C-90.4487418 318.11699379 -139.47210063 323.93286721 -187.57310486 326.58241272 C-191.15753087 326.78685934 -194.70922395 327.06432227 -198.2746582 327.48901367 C-203.9387672 328.14485587 -209.61598599 328.42510298 -215.30859375 328.71875 C-216.49163086 328.78132492 -217.67466797 328.84389984 -218.89355469 328.90837097 C-222.74133535 329.10973569 -226.58935546 329.30571844 -230.4375 329.5 C-231.09509937 329.53338596 -231.75269875 329.56677193 -232.43022537 329.60116959 C-268.29181357 331.42020052 -304.09387899 332.21598166 -340 332 C-339.20924072 331.38213623 -338.41848145 330.76427246 -337.60375977 330.12768555 C-324.02215992 319.02935993 -320.77090228 297.39715175 -319 281 C-318.60307143 274.53835673 -318.64718726 268.07093495 -318.71875 261.60009766 C-318.75042615 258.71113348 -318.75979134 255.822716 -318.765625 252.93359375 C-318.77477889 251.07551418 -318.78514945 249.21744012 -318.796875 247.359375 C-318.80112488 246.50623718 -318.80537476 245.65309937 -318.80975342 244.77410889 C-318.81936096 243.97176819 -318.82896851 243.16942749 -318.83886719 242.34277344 C-318.84910919 241.2983609 -318.84910919 241.2983609 -318.85955811 240.23284912 C-319.03484267 237.44604541 -319.5068574 234.74647314 -320 232 C-299.89590523 231.82431279 -279.79173681 231.65850939 -259.6875 231.5 C-258.93439214 231.49405146 -258.18128428 231.48810292 -257.40535498 231.48197412 C-221.74700695 231.20080109 -186.08924988 230.95925135 -150.4296875 230.93359375 C-149.18899632 230.9326729 -147.94830513 230.93175205 -146.67001724 230.9308033 C-121.11333829 230.91625186 -95.5566318 230.96744378 -70 231 C-70 191.4 -70 151.8 -70 111 C-204.145 110.505 -204.145 110.505 -341 110 C-345.0821773 93.67129082 -340.51022495 75.3872101 -332.0625 61.20703125 C-323.68269154 48.17706392 -310.19702123 38.48593554 -294.97216797 35.00439453 C-289.71869855 33.86916069 -284.45025775 33.26402735 -279.109375 32.703125 C-276.95629036 32.46736248 -274.80321456 32.23151917 -272.65014648 31.99560547 C-271.52583221 31.87425232 -270.40151794 31.75289917 -269.24313354 31.62786865 C-250.60746526 29.61196094 -232.00834938 27.41985499 -213.4375 24.875 C-199.58681462 22.97955418 -185.73883452 21.24881571 -171.83761597 19.7699585 C-159.02667241 18.40141219 -146.2656649 16.73813894 -133.5 15 C-120.014787 13.1638893 -106.53346077 11.43944002 -93 10 C-77.18158166 8.31741527 -61.42350253 6.25443615 -45.66210938 4.10546875 C-37.32702641 2.96953997 -28.99155856 1.84216569 -20.640625 0.828125 C-19.34286133 0.66989258 -18.04509766 0.51166016 -16.70800781 0.34863281 C-11.13144687 -0.17568435 -5.5943027 -0.175126 0 0 Z " fill="#D5D5D5" transform="translate(786,149)"/>
<path d="M0 0 C4.38630074 -0.00050049 8.77259943 -0.0028043 13.15889931 -0.00549722 C27.70106491 -0.01424156 42.24322326 -0.01892404 56.78539151 -0.01816674 C57.56151392 -0.01812679 58.33763633 -0.01808683 59.1372776 -0.01804566 C59.91436445 -0.01800478 60.6914513 -0.0179639 61.49208623 -0.01792178 C74.17766603 -0.01751243 86.86321658 -0.02717027 99.54878789 -0.04118403 C112.64001265 -0.05553053 125.73122306 -0.06245583 138.82245588 -0.06159025 C146.14718153 -0.0612587 153.47187611 -0.0639906 160.79659462 -0.0747683 C167.65222517 -0.08479456 174.50778866 -0.08455672 181.36342239 -0.07725167 C183.88058824 -0.07620211 186.39775813 -0.07859057 188.91491699 -0.08461213 C192.34047518 -0.09227968 195.76580188 -0.08772284 199.19135475 -0.07998109 C200.19403027 -0.08512465 201.19670579 -0.09026821 202.22976542 -0.09556764 C203.6035099 -0.08866945 203.6035099 -0.08866945 205.00500679 -0.0816319 C205.79505592 -0.08184927 206.58510505 -0.08206663 207.39909506 -0.08229059 C209.56647682 0.16725707 209.56647682 0.16725707 213.56647682 2.16725707 C210.59647682 2.16725707 207.62647682 2.16725707 204.56647682 2.16725707 C204.56869743 3.53059676 204.57091805 4.89393645 204.57320595 6.29858947 C204.59343453 19.11604014 204.60844759 31.93348759 204.61828899 44.75095057 C204.62351854 51.34130492 204.63061749 57.93164644 204.64191628 64.5219934 C204.6527426 70.87617725 204.65875311 77.23034872 204.66135406 83.58454108 C204.66320878 86.01475318 204.66683026 88.44496456 204.67220688 90.87517142 C204.67941393 94.26608689 204.68046791 97.65695048 204.68000221 101.0478723 C204.68359749 102.06350753 204.68719276 103.07914275 204.69089699 104.1255548 C204.68952232 105.04407226 204.68814766 105.96258971 204.68673134 106.90894103 C204.68811403 108.11326356 204.68811403 108.11326356 204.68952465 109.34191585 C204.56647682 111.16725707 204.56647682 111.16725707 203.56647682 112.16725707 C201.97656559 112.26429206 200.382322 112.29097333 198.78945255 112.2903049 C197.74940962 112.29229595 196.70936669 112.294287 195.63780731 112.29633838 C194.48121756 112.29342554 193.32462781 112.2905127 192.13298988 112.28751159 C190.91523686 112.28836601 189.69748383 112.28922044 188.44282919 112.29010075 C185.04739829 112.29146898 181.65202431 112.28832135 178.25660026 112.28332269 C174.60082361 112.27902162 170.94504886 112.28046437 167.2892704 112.28122497 C160.95029657 112.28175042 154.611333 112.27860139 148.27236176 112.27298713 C139.10716838 112.26487502 129.94197999 112.26225721 120.77678341 112.26099914 C105.90841994 112.25880816 91.04006193 112.25214684 76.17170143 112.24269652 C61.72476161 112.23352358 47.27782327 112.22644217 32.83088112 112.22218871 C31.94101916 112.22192599 31.0511572 112.22166326 30.13432973 112.22139258 C25.67034714 112.22008758 21.20636454 112.21882387 16.74238193 112.21758068 C-20.31625697 112.20720664 -57.37488965 112.18958709 -94.43352318 112.16725707 C-94.45685338 97.84231281 -94.47443654 83.51737148 -94.48533535 69.19241214 C-94.49056492 62.54152178 -94.4976639 55.89064921 -94.50896263 49.23976684 C-94.51978889 42.8272283 -94.52579945 36.41470203 -94.52840042 30.00215507 C-94.53025514 27.54961429 -94.53387665 25.09707422 -94.53925323 22.64453864 C-94.54646019 19.2224903 -94.54751427 15.80049336 -94.54704857 12.37843871 C-94.55064384 11.35345275 -94.55423912 10.32846679 -94.55794334 9.27242064 C-94.55656868 8.34548903 -94.55519402 7.41855742 -94.55377769 6.46353698 C-94.55469949 5.65328094 -94.55562128 4.84302491 -94.55657101 4.00821567 C-94.43352318 2.16725707 -94.43352318 2.16725707 -93.43352318 1.16725707 C-88.71341451 0.77486933 -83.9665974 0.73677081 -79.2323513 0.61525512 C-78.45754701 0.59434039 -77.68274271 0.57342565 -76.8844595 0.55187714 C-51.26340872 -0.11981755 -25.62792317 0.00231653 0 0 Z " fill="#DB0202" transform="translate(502.4335231781006,258.8327429294586)"/>
<path d="M0 0 C-0.13337265 0.89613007 -0.13337265 0.89613007 -0.2694397 1.81036377 C-2.55468577 17.52654026 -3.48875729 32.87917574 -3.375 48.75 C-3.37234131 49.83441376 -3.36968262 50.91882751 -3.36694336 52.03610229 C-3.32449329 66.84260582 -2.75136596 81.30435923 -0.65625 95.97265625 C0.17490722 103.60643952 0 111.32110233 0 119 C-22.77 119 -45.54 119 -69 119 C-69 116.36 -69 113.72 -69 111 C-158.76 110.67 -248.52 110.34 -341 110 C-345.0821773 93.67129082 -340.51022495 75.3872101 -332.0625 61.20703125 C-323.68269154 48.17706392 -310.19702123 38.48593554 -294.97216797 35.00439453 C-289.71869855 33.86916069 -284.45025775 33.26402735 -279.109375 32.703125 C-276.95629036 32.46736248 -274.80321456 32.23151917 -272.65014648 31.99560547 C-271.52583221 31.87425232 -270.40151794 31.75289917 -269.24313354 31.62786865 C-250.60746526 29.61196094 -232.00834938 27.41985499 -213.4375 24.875 C-199.58681462 22.97955418 -185.73883452 21.24881571 -171.83761597 19.7699585 C-159.02667241 18.40141219 -146.2656649 16.73813894 -133.5 15 C-120.014787 13.1638893 -106.53346077 11.43944002 -93 10 C-77.18158166 8.31741527 -61.42350253 6.25443615 -45.66210938 4.10546875 C-37.32702641 2.96953997 -28.99155856 1.84216569 -20.640625 0.828125 C-19.34286133 0.66989258 -18.04509766 0.51166016 -16.70800781 0.34863281 C-11.13144687 -0.17568435 -5.5943027 -0.175126 0 0 Z " fill="#F1F0F0" transform="translate(786,149)"/>
<path d="M0 0 C0.33 0 0.66 0 1 0 C1 2.64 1 5.28 1 8 C23.77 8 46.54 8 70 8 C70 5.36 70 2.72 70 0 C70.33 0 70.66 0 71 0 C71.69888653 6.40000435 72.39196339 12.8006201 73.08129883 19.20166016 C73.31568776 21.37204705 73.55133064 23.54229896 73.78833008 25.71240234 C75.85986379 44.69343215 77.18689576 63.40047988 77.18530273 82.49926758 C77.18749439 85.42999706 77.20574612 88.36035194 77.22460938 91.29101562 C77.26450902 104.7820649 76.236334 117.6837904 74 131 C73.30605133 131.01030746 72.61210266 131.02061493 71.89712524 131.03123474 C65.22404484 131.13090254 58.55101774 131.2335914 51.87803078 131.33933926 C48.45077245 131.39355395 45.02350587 131.44676224 41.59619141 131.49731445 C37.61876179 131.55655899 33.64142088 131.61976709 29.6640625 131.68359375 C27.89671249 131.70866249 27.89671249 131.70866249 26.09365845 131.73423767 C19.14443647 131.84981003 12.20805441 132.06476303 5.26418686 132.35410404 C-10.43871779 133.00543662 -26.138728 133.27709005 -41.85250521 133.47232056 C-45.60640871 133.5198409 -49.36025333 133.57163667 -53.11410522 133.62304688 C-61.81677555 133.74160346 -70.51950221 133.85559894 -79.22224426 133.96875 C-90.27552939 134.11250792 -101.32879433 134.25751354 -112.38198316 134.40851593 C-116.08260359 134.45892967 -119.78323057 134.50821193 -123.48390579 134.55444336 C-139.34106566 134.75270796 -155.18655642 135.06576614 -171.03636479 135.59355819 C-181.07162085 135.92689386 -191.08430864 136.13962622 -201.125 136.09765625 C-202.51415962 136.09577375 -203.90331993 136.09435865 -205.29248047 136.09336853 C-208.81675304 136.08968654 -212.34097922 136.07999426 -215.86523438 136.06866455 C-219.51431654 136.05812712 -223.16340677 136.05380439 -226.8125 136.04882812 C-233.87501998 136.03834631 -240.93750194 136.02088166 -248 136 C-248.66 131.05 -249.32 126.1 -250 121 C-229.89590245 120.8245963 -209.79173719 120.65850939 -189.6875 120.5 C-188.93439214 120.49405146 -188.18128428 120.48810292 -187.40535498 120.48197412 C-151.74700695 120.20080109 -116.08924988 119.95925135 -80.4296875 119.93359375 C-79.18899632 119.9326729 -77.94830513 119.93175205 -76.67001724 119.9308033 C-51.11333829 119.91625186 -25.5566318 119.96744378 0 120 C0 80.4 0 40.8 0 0 Z " fill="#DBDADA" transform="translate(716,260)"/>
<path d="M0 0 C-0.12846313 0.82346924 -0.12846313 0.82346924 -0.25952148 1.66357422 C-2.29067253 15.0957777 -3.28663321 28.32047366 -3.59765625 41.8828125 C-3.63816814 43.4564757 -3.67922158 45.03012505 -3.7208252 46.60375977 C-3.82010121 50.40237654 -3.91213797 54.20110279 -4 58 C-4.59200982 58.00423194 -5.18401964 58.00846388 -5.79396915 58.01282406 C-30.97144068 58.19306361 -56.14889651 58.3747906 -81.32617188 58.58081055 C-82.05929745 58.58680366 -82.79242303 58.59279677 -83.54776454 58.59897149 C-90.20253775 58.6534134 -96.85730879 58.70811238 -103.51207352 58.76358223 C-118.96661068 58.89236836 -134.42104145 59.01514214 -149.87591076 59.09797955 C-157.41237224 59.13865077 -164.94867348 59.19083092 -172.48497486 59.25468159 C-176.62885573 59.28924536 -180.77251785 59.31705504 -184.91653442 59.32785034 C-188.71354824 59.33777849 -192.50999113 59.36551407 -196.30677986 59.40768814 C-198.28106293 59.42495947 -200.25548683 59.42290802 -202.22984314 59.41989136 C-209.44149155 59.52180896 -214.67303383 60.53717854 -221 64 C-223.63671875 65.0390625 -223.63671875 65.0390625 -225.6875 65.625 C-226.37199219 65.84414062 -227.05648437 66.06328125 -227.76171875 66.2890625 C-230 66 -230 66 -232.55801392 63.03024292 C-235.78530746 59.7218489 -238.18260465 59.28444902 -242.71188354 59.1900177 C-243.99798019 59.20834908 -243.99798019 59.20834908 -245.31005859 59.22705078 C-246.22777039 59.21642105 -247.14548218 59.20579132 -248.09100342 59.19483948 C-251.11070943 59.1668357 -254.12866157 59.18083538 -257.1484375 59.1953125 C-259.24738082 59.18406018 -261.34631155 59.17017859 -263.44522095 59.15377808 C-268.95924068 59.11774155 -274.47270593 59.11736647 -279.98681641 59.12445068 C-285.61761392 59.12536359 -291.24820363 59.09250505 -296.87890625 59.0625 C-307.91932891 59.00863901 -318.95946047 58.99245584 -330 59 C-329.04894032 57.71268535 -328.0952204 56.42733578 -327.14038086 55.14282227 C-326.60956406 54.42683365 -326.07874725 53.71084503 -325.53184509 52.97315979 C-316.6739946 41.56341967 -301.36488849 35.63371681 -287.46202087 33.63516235 C-284.67998833 33.29963453 -281.89623905 32.99580294 -279.109375 32.703125 C-276.95629036 32.46736248 -274.80321456 32.23151917 -272.65014648 31.99560547 C-270.96367508 31.81357574 -270.96367508 31.81357574 -269.24313354 31.62786865 C-250.60746526 29.61196094 -232.00834938 27.41985499 -213.4375 24.875 C-199.58681462 22.97955418 -185.73883452 21.24881571 -171.83761597 19.7699585 C-159.02667241 18.40141219 -146.2656649 16.73813894 -133.5 15 C-120.014787 13.1638893 -106.53346077 11.43944002 -93 10 C-77.18158166 8.31741527 -61.42350253 6.25443615 -45.66210938 4.10546875 C-37.32702641 2.96953997 -28.99155856 1.84216569 -20.640625 0.828125 C-19.34286133 0.66989258 -18.04509766 0.51166016 -16.70800781 0.34863281 C-11.12956414 -0.17586136 -5.60055901 -0.17532185 0 0 Z " fill="#D9D7D7" transform="translate(786,149)"/>
<path d="M0 0 C0.33 0 0.66 0 1 0 C1.34819028 3.14436193 1.67544353 6.29061804 2 9.4375 C2.14308594 10.72624023 2.14308594 10.72624023 2.2890625 12.04101562 C3.17586512 20.81402722 3 29.02224648 3 38 C-19.77 38 -42.54 38 -66 38 C-66 35.36 -66 32.72 -66 30 C-155.76 29.67 -245.52 29.34 -338 29 C-339.00183619 24.99265523 -339.13321706 21.74174639 -339.125 17.625 C-339.12757813 16.33851563 -339.13015625 15.05203125 -339.1328125 13.7265625 C-339.01363474 10.3825749 -338.63956128 7.27902051 -338 4 C-337.34 4.66 -336.68 5.32 -336 6 C-333.48763412 6.30823041 -333.48763412 6.30823041 -330.50646782 6.26171303 C-329.33206481 6.26917852 -328.1576618 6.27664401 -326.94767082 6.28433573 C-325.64613787 6.282401 -324.34460493 6.28046626 -323.00363159 6.2784729 C-321.61596923 6.28347169 -320.22830979 6.28934624 -318.84065449 6.29602563 C-315.01422961 6.31189028 -311.18787801 6.31525984 -307.36142421 6.31667423 C-303.24006335 6.32035706 -299.11874323 6.33550686 -294.99740601 6.34928894 C-287.85251158 6.37160087 -280.70763157 6.38659045 -273.56270981 6.39665604 C-263.23226108 6.41121982 -252.90186255 6.4367501 -242.57144322 6.46498732 C-225.81245328 6.51049725 -209.05345613 6.54709465 -192.29443359 6.578125 C-176.01121758 6.60829337 -159.72801923 6.64263573 -143.44482422 6.68261719 C-141.94016662 6.68630951 -141.94016662 6.68630951 -140.40511189 6.69007643 C-135.37300505 6.70245069 -130.34089841 6.71490729 -125.30879188 6.72740483 C-83.53921914 6.8310355 -41.76962466 6.92021797 0 7 C0 4.69 0 2.38 0 0 Z " fill="#EEEEEE" transform="translate(783,230)"/>
<path d="M0 0 C40.26521739 0 40.26521739 0 51 3 C51.94746094 3.25523437 52.89492188 3.51046875 53.87109375 3.7734375 C62.75456633 6.72107376 69.83668921 13.06909603 74.0625 21.375 C78.41199443 31.12653555 78.80212957 43.82821567 75.5625 54.0625 C70.76195105 64.83446349 62.697038 70.74195575 52 75 C36 78 36 78 0 78 C0 52.26 0 26.52 0 0 Z " fill="#FDF9F9" transform="translate(528,279)"/>
<path d="M0 0 C2.97 0 5.94 0 9 0 C9 39.27 9 78.54 9 119 C-51.5665042 119.5418519 -51.5665042 119.5418519 -77.34179688 119.75976562 C-83.22713314 119.80953708 -89.1124686 119.85940197 -94.99780273 119.90942383 C-95.73497424 119.91568545 -96.47214574 119.92194707 -97.23165578 119.92839843 C-108.98152383 120.02833818 -120.73133916 120.13350642 -132.48114244 120.24076361 C-144.62788475 120.35152186 -156.77466914 120.456297 -168.92150706 120.55602258 C-175.70696383 120.61188952 -182.49237418 120.67030494 -189.27775002 120.73533821 C-226.54152782 121.09018243 -263.7457554 120.81305171 -301 120 C-301 116.7 -301 113.4 -301 110 C-202 109.67 -103 109.34 -1 109 C-0.67 73.03 -0.34 37.06 0 0 Z " fill="#7E0303" transform="translate(707,261)"/>
<path d="M0 0 C2.43048148 0.01310412 4.86098183 0.02304541 7.29148865 0.03001404 C13.59638241 0.05636083 19.90009302 0.12478399 26.20452881 0.20294189 C32.67460131 0.27538375 39.14487064 0.30669616 45.61523438 0.34179688 C58.24278305 0.41619705 70.8691536 0.5390044 83.49609375 0.68359375 C83.16609375 8.93359375 82.83609375 17.18359375 82.49609375 25.68359375 C20.45609375 25.68359375 -41.58390625 25.68359375 -105.50390625 25.68359375 C-105.17390625 25.02359375 -104.84390625 24.36359375 -104.50390625 23.68359375 C-101.65604909 22.76030161 -98.83236729 21.95078562 -95.94140625 21.18359375 C-85.21374722 18.23603096 -74.61160382 14.93984006 -64.01733398 11.55078125 C-61.45783814 10.73998177 -58.89816669 9.94304499 -56.32904053 9.16470337 C-53.83833647 8.40854308 -51.35711951 7.6354095 -48.88392735 6.82355881 C-32.29345553 1.38537599 -17.39104052 -0.28170083 0 0 Z " fill="#F1F1F1" transform="translate(698.50390625,177.31640625)"/>
<path d="M0 0 C7.363125 -0.0825 14.72625 -0.165 22.3125 -0.25 C24.61387939 -0.28641602 26.91525879 -0.32283203 29.28637695 -0.36035156 C31.14533562 -0.37205257 33.00430467 -0.38224103 34.86328125 -0.390625 C35.80022827 -0.41108887 36.73717529 -0.43155273 37.70251465 -0.45263672 C45.84155473 -0.45685548 53.04012742 1.47242176 59.9375 5.875 C66.53148783 12.66880564 67.31582258 18.35587113 67.203125 27.484375 C66.82369736 34.05139192 65.29372259 38.07142779 60.625 42.75 C48.96127216 51.91735444 35.00498281 50.34368056 21 50 C21 58.91 21 67.82 21 77 C14.07 77 7.14 77 0 77 C0 51.59 0 26.18 0 0 Z " fill="#FEFBFB" transform="translate(446,280)"/>
<path d="M0 0 C1.75957031 0.02707031 1.75957031 0.02707031 3.5546875 0.0546875 C4.82699219 0.08949219 4.82699219 0.08949219 6.125 0.125 C2.82168052 2.32721299 -0.14901227 3.03694562 -3.953125 3.859375 C-4.66367538 4.01779877 -5.37422577 4.17622253 -6.10630798 4.33944702 C-8.444415 4.85816953 -10.78456374 5.36689866 -13.125 5.875 C-14.75694243 6.23409813 -16.38885947 6.59331166 -18.02075195 6.95263672 C-28.3395721 9.21045521 -38.68363434 11.28913762 -49.0625 13.25 C-80.31971167 19.18871227 -111.0421991 27.52044376 -141.125 37.875 C-141.76656036 38.09529877 -142.40812073 38.31559753 -143.06912231 38.54257202 C-148.75144893 40.50329661 -154.41063465 42.48730151 -159.95117188 44.82226562 C-160.62565369 45.10410706 -161.3001355 45.38594849 -161.99505615 45.67633057 C-163.87661594 46.47016141 -165.75058502 47.28191467 -167.62402344 48.09472656 C-171.00596043 49.16650293 -172.5625427 49.25869497 -175.875 48.125 C-177.8046875 46.7421875 -177.8046875 46.7421875 -179.75 45 C-192.3222835 34.8798313 -208.98171222 30.26023484 -224.875 29.125 C-216.52876671 23.56084447 -203.1507394 24.16224761 -193.32839966 23.06613159 C-179.84068513 21.55860324 -166.37194668 19.99301396 -152.9375 18.0625 C-141.85470197 16.47541939 -130.75958985 15.20157105 -119.62942505 14.00949097 C-105.55349244 12.4943673 -91.53283239 10.64527647 -77.50582886 8.73406982 C-62.89685413 6.74749996 -48.27923741 4.96506781 -33.6171875 3.41796875 C-27.17814149 2.73510873 -20.76770272 1.98554431 -14.36328125 1.0234375 C-9.50089028 0.30773997 -4.9099942 -0.10020396 0 0 Z " fill="#FEFAFA" transform="translate(732.875,154.875)"/>
<path d="M0 0 C18.81 0 37.62 0 57 0 C57 4.62 57 9.24 57 14 C45.45 14 33.9 14 22 14 C22 18.95 22 23.9 22 29 C33.22 29 44.44 29 56 29 C56 33.95 56 38.9 56 44 C44.78 44 33.56 44 22 44 C22 54.89 22 65.78 22 77 C14.74 77 7.48 77 0 77 C0 51.59 0 26.18 0 0 Z " fill="#FDF7F7" transform="translate(621,280)"/>
<path d="M0 0 C23.43 0 46.86 0 71 0 C73 18 73 18 73 28 C48.91 28 24.82 28 0 28 C0 18.76 0 9.52 0 0 Z " fill="#E6E6E6" transform="translate(717,272)"/>
<path d="M0 0 C0 8.58 0 17.16 0 26 C-25.08 26 -50.16 26 -76 26 C-76 17.75 -76 9.5 -76 1 C-50.65733787 0.17536951 -25.35560408 -0.12328495 0 0 Z " fill="#DDDDDD" transform="translate(793,332)"/>
<path d="M0 0 C9.48346765 -0.06769442 18.96677564 -0.12276882 28.45042992 -0.15543652 C32.85376311 -0.17111294 37.25692288 -0.19238698 41.66015625 -0.22631836 C45.90710791 -0.25884175 50.15389246 -0.27683811 54.40095901 -0.28463173 C56.02374529 -0.29018792 57.64652212 -0.30103743 59.26923752 -0.31719017 C61.5369541 -0.33887178 63.80397431 -0.34197091 66.07177734 -0.34057617 C67.36417328 -0.34723801 68.65656921 -0.35389984 69.98812866 -0.36076355 C71.47900497 -0.18218559 71.47900497 -0.18218559 73 0 C77.63727005 6.95590507 75 16.64004253 75 25 C50.25 25 25.5 25 0 25 C0 16.75 0 8.5 0 0 Z " fill="#E1E1E1" transform="translate(717,304)"/>
<path d="M0 0 C1.53381535 0.31009339 3.06910584 0.61294179 4.60546875 0.91015625 C13.99334636 2.8119378 23.01048787 4.93958716 31.75 8.9375 C32.45793701 9.24888916 33.16587402 9.56027832 33.89526367 9.88110352 C37.37373416 11.57904678 38.81614481 12.53638986 40.265625 16.19140625 C40.62914062 17.58166016 40.62914062 17.58166016 41 19 C42.485 19.495 42.485 19.495 44 20 C45.38671875 21.77734375 45.38671875 21.77734375 46.6875 23.9375 C47.12449219 24.64777344 47.56148437 25.35804688 48.01171875 26.08984375 C49 28 49 28 49 30 C44.53064978 29.50340553 43.10661112 28.10661112 40 25 C34.54142625 21.4809067 29.88857269 20.42243812 23.47265625 20.54589844 C22.66194168 20.54531433 21.85122711 20.54473022 21.01594543 20.54412842 C18.36434519 20.54689173 15.71390127 20.57789887 13.0625 20.609375 C11.21305963 20.61684367 9.3636113 20.62253364 7.51416016 20.62652588 C2.66755989 20.641733 -2.17855407 20.68097192 -7.02496338 20.7253418 C-11.97881493 20.76640115 -16.93274575 20.7845596 -21.88671875 20.8046875 C-31.59135845 20.84747132 -41.29563864 20.91566248 -51 21 C-46.18279553 10.7469774 -34.00117279 5.96959449 -24 2 C-20.99730714 1.01580932 -18.13265051 0.38529926 -15 0 C-14.06027344 -0.11988281 -13.12054688 -0.23976562 -12.15234375 -0.36328125 C-7.76248852 -0.84333129 -4.27284407 -1.12201286 0 0 Z " fill="#E3E2E2" transform="translate(511,183)"/>
<path d="M0 0 C20.08252427 0 20.08252427 0 28.5 6.375 C33.4983833 11.62330247 34.53388478 16.40213965 34.4375 23.375 C34.43065186 24.12869873 34.42380371 24.88239746 34.41674805 25.65893555 C34.21424424 32.65252191 32.78651976 36.96016026 27.9375 42.25 C18.50413656 47.86987609 11.50840377 48 0 48 C0 32.16 0 16.32 0 0 Z " fill="#DF0707" transform="translate(549,294)"/>
<path d="M0 0 C0.33 0 0.66 0 1 0 C1 2.64 1 5.28 1 8 C23.77 8 46.54 8 70 8 C70 5.36 70 2.72 70 0 C70.33 0 70.66 0 71 0 C71 3.96 71 7.92 71 12 C47.9 12 24.8 12 1 12 C1 21.24 1 30.48 1 40 C25.09 40 49.18 40 74 40 C74.33 39.01 74.66 38.02 75 37 C75 39.64 75 42.28 75 45 C38.37 44.505 38.37 44.505 1 44 C1 52.25 1 60.5 1 69 C25.75 69 50.5 69 76 69 C76 67.02 76 65.04 76 63 C76.33 63 76.66 63 77 63 C77 65.97 77 68.94 77 72 C51.65880663 72.77724845 26.35285473 73.1325832 1 73 C1 81.25 1 89.5 1 98 C26.08 98 51.16 98 77 98 C77 101.3 77 104.6 77 108 C76.67 108 76.34 108 76 108 C76 106.02 76 104.04 76 102 C51.25 102 26.5 102 1 102 C1 107.94 1 113.88 1 120 C0.67 120 0.34 120 0 120 C0 80.4 0 40.8 0 0 Z " fill="#BFBBBB" transform="translate(716,260)"/>
<path d="M0 0 C1.27277802 0.00141495 2.54555603 0.0028299 3.85690308 0.00428772 C7.79785851 0.00974535 11.73875019 0.02226624 15.6796875 0.03515625 C18.40364436 0.0407787 21.12760284 0.04481942 23.8515625 0.04882812 C30.41929143 0.05966731 36.98698492 0.07625344 43.5546875 0.09765625 C43.5546875 2.40765625 43.5546875 4.71765625 43.5546875 7.09765625 C43.2246875 6.10765625 42.8946875 5.11765625 42.5546875 4.09765625 C14.21549288 4.58934744 -14.12368808 5.08181911 -42.46285125 5.57532 C-45.83957326 5.6341219 -49.21629539 5.69291742 -52.59301758 5.75170898 C-53.26501515 5.76340913 -53.93701272 5.77510928 -54.62937386 5.78716398 C-64.72271753 5.96288503 -74.81606858 6.1381775 -84.90942383 6.31323242 C-96.68176883 6.51740776 -108.45410431 6.72212283 -120.22642952 6.92743593 C-126.43583772 7.03571247 -132.64524978 7.14375295 -138.85467339 7.2511425 C-145.8568243 7.3722774 -152.85895899 7.49431987 -159.86108398 7.61694336 C-160.97910145 7.63646148 -162.09711891 7.65597959 -163.24901569 7.67608917 C-175.46945075 7.8901939 -187.68941383 8.11851522 -199.90896606 8.37844849 C-201.00679564 8.40164416 -202.10462522 8.42483983 -203.23572236 8.4487384 C-208.39143792 8.55798468 -213.54707894 8.66961245 -218.70263577 8.78610897 C-238.28271573 9.21580608 -257.86163386 9.19862707 -277.4453125 9.09765625 C-277.4453125 7.77765625 -277.4453125 6.45765625 -277.4453125 5.09765625 C-276.7145752 5.08734879 -275.98383789 5.07704132 -275.23095703 5.06642151 C-268.17713343 4.96642998 -261.12335504 4.86372216 -254.0696106 4.75831699 C-250.44746698 4.7042771 -246.82531598 4.65111625 -243.203125 4.6003418 C-239.67572296 4.55085736 -236.14837058 4.49857311 -232.62103271 4.4447155 C-230.69025176 4.41585528 -228.75943307 4.38955224 -226.82861328 4.36341858 C-218.04255562 4.22639588 -209.2640159 3.96714499 -200.48167729 3.67675769 C-183.91821926 3.1315293 -167.35763523 2.83234953 -150.78685427 2.62533569 C-147.03018166 2.57758203 -143.27356253 2.52593026 -139.51693726 2.47460938 C-128.43269317 2.32386725 -117.34837002 2.1792722 -106.26403809 2.03515625 C-97.59424893 1.92233514 -88.92448678 1.80787479 -80.25477636 1.68914032 C-76.55108453 1.63855969 -72.84738637 1.5892289 -69.1436348 1.54321289 C-54.14218432 1.35653841 -39.15699579 1.06362171 -24.16636276 0.43699741 C-16.105088 0.10442941 -8.06906402 -0.03601539 0 0 Z " fill="#BBBABA" transform="translate(745.4453125,390.90234375)"/>
<path d="M0 0 C-0.33 1.65 -0.66 3.3 -1 5 C-1.80790482 4.99574509 -2.61580963 4.99149017 -3.44819641 4.98710632 C-29.23999383 4.87208587 -55.01334774 5.25220643 -80.79986954 5.74781036 C-84.23695146 5.81344432 -87.67405779 5.87761668 -91.11117554 5.94134521 C-120.39067075 6.48479391 -149.66843395 7.09188051 -178.9455688 7.7489078 C-181.25443705 7.80070552 -183.56330772 7.85239376 -185.87217903 7.90405464 C-200.20434261 8.22485396 -214.53645753 8.54744061 -228.86828572 8.88292485 C-288.44748836 10.27690002 -288.44748836 10.27690002 -313 10 C-313 8.68 -313 7.36 -313 6 C-311.56078831 5.9704603 -311.56078831 5.9704603 -310.09250164 5.94032383 C-286.62461583 5.45854512 -263.1567843 4.97418758 -239.68900585 4.48720646 C-228.33965118 4.25175364 -216.99028101 4.01710468 -205.64086914 3.78442383 C-195.73577254 3.5813516 -185.8307101 3.37669401 -175.9256838 3.17022032 C-170.6928558 3.06119327 -165.46001519 2.95290046 -160.2271328 2.84651375 C-140.28939012 2.44071607 -120.36149689 2.00591151 -100.43492126 1.20851135 C-93.35760869 0.92757835 -86.2814378 0.78319707 -79.19921875 0.68359375 C-77.85235813 0.66279069 -76.5055005 0.64179315 -75.15864563 0.62062073 C-72.38581713 0.57766204 -69.61296987 0.5366652 -66.84008789 0.49731445 C-63.38889488 0.44822613 -59.93779378 0.3944619 -56.48669243 0.33934593 C-37.65641236 0.04080468 -18.83267774 -0.05849656 0 0 Z " fill="#BBBABA" transform="translate(781,420)"/>
<path d="M0 0 C-7.44456229 7.44456229 -24.40373524 6.34971245 -34.046875 6.35546875 C-39.2819543 6.33353453 -44.51549451 6.26556461 -49.75 6.1875 C-53.6714663 6.14419997 -57.59288363 6.10714954 -61.51446533 6.07600403 C-63.93052394 6.05524537 -66.34654273 6.02740123 -68.76239014 5.98930359 C-78.72856556 5.87781806 -88.66304686 6.23459605 -98.62179184 6.58864021 C-108.49662692 6.93527331 -118.37111964 7.19012303 -128.25 7.38891602 C-128.9936155 7.40388957 -129.737231 7.41886312 -130.5033803 7.43429041 C-135.18714168 7.52782194 -139.87096321 7.61801967 -144.55480957 7.70718122 C-147.89378524 7.77098555 -151.2327348 7.83610653 -154.57168579 7.90118736 C-162.46962948 8.05509531 -170.36761228 8.20685713 -178.265625 8.35717773 C-186.31253053 8.51036926 -194.3593589 8.66721792 -202.40615845 8.82587105 C-209.41350326 8.96389834 -216.42089052 9.09960839 -223.42831421 9.23357147 C-227.57039955 9.31277652 -231.71246577 9.39274355 -235.85449219 9.47497749 C-256.23959143 9.87855586 -276.61052321 10.09207444 -297 10 C-296.67 8.02 -296.34 6.04 -296 4 C-295.67 4.66 -295.34 5.32 -295 6 C-277.57631004 5.61430603 -260.15265716 5.22695623 -242.72902328 4.83873868 C-238.20988797 4.73806411 -233.69074908 4.6375516 -229.17160738 4.53716451 C-195.91378771 3.79835041 -162.65630126 3.04961195 -129.40013313 2.23945427 C-125.04845842 2.13345 -120.69676904 2.02805628 -116.34507751 1.92274475 C-113.50161673 1.85388041 -110.6581568 1.78498053 -107.81469727 1.71606445 C-106.77188144 1.69079703 -106.77188144 1.69079703 -105.70799863 1.66501915 C-98.20686351 1.48315506 -90.70577801 1.29955483 -83.20480347 1.11117554 C-55.46681196 0.41534574 -27.74825928 -0.26120917 0 0 Z " fill="#BBBABA" transform="translate(759,449)"/>
<path d="M0 0 C0.33 0 0.66 0 1 0 C1 3.3 1 6.6 1 10 C-110.87 10 -222.74 10 -338 10 C-338 8.02 -338 6.04 -338 4 C-337.34 4.66 -336.68 5.32 -336 6 C-333.48763412 6.30823041 -333.48763412 6.30823041 -330.50646782 6.26171303 C-329.33206481 6.26917852 -328.1576618 6.27664401 -326.94767082 6.28433573 C-325.64613787 6.282401 -324.34460493 6.28046626 -323.00363159 6.2784729 C-321.61596923 6.28347169 -320.22830979 6.28934624 -318.84065449 6.29602563 C-315.01422961 6.31189028 -311.18787801 6.31525984 -307.36142421 6.31667423 C-303.24006335 6.32035706 -299.11874323 6.33550686 -294.99740601 6.34928894 C-287.85251158 6.37160087 -280.70763157 6.38659045 -273.56270981 6.39665604 C-263.23226108 6.41121982 -252.90186255 6.4367501 -242.57144322 6.46498732 C-225.81245328 6.51049725 -209.05345613 6.54709465 -192.29443359 6.578125 C-176.01121758 6.60829337 -159.72801923 6.64263573 -143.44482422 6.68261719 C-141.94016662 6.68630951 -141.94016662 6.68630951 -140.40511189 6.69007643 C-135.37300505 6.70245069 -130.34089841 6.71490729 -125.30879188 6.72740483 C-83.53921914 6.8310355 -41.76962466 6.92021797 0 7 C0 4.69 0 2.38 0 0 Z " fill="#B8B6B6" transform="translate(783,230)"/>
<path d="M0 0 C0.33 0 0.66 0 1 0 C1 8.91 1 17.82 1 27 C-65.99 27 -132.98 27 -202 27 C-202 26.34 -202 25.68 -202 25 C-200.02 25 -198.04 25 -196 25 C-195.67 24.34 -195.34 23.68 -195 23 C-192.4375 22.375 -192.4375 22.375 -190 22 C-190 22.33 -190 22.66 -190 23 C-127.3 23 -64.6 23 0 23 C0 15.41 0 7.82 0 0 Z " fill="#BCB9B9" transform="translate(781,180)"/>
<path d="M0 0 C2.68125 -0.0825 5.3625 -0.165 8.125 -0.25 C8.95789551 -0.28641602 9.79079102 -0.32283203 10.64892578 -0.36035156 C16.06637996 -0.44049524 18.7965152 0.56911833 23 4 C24.72211338 5.72211338 24.33380292 7.8995329 24.4375 10.25 C24.49808594 11.20390625 24.55867188 12.1578125 24.62109375 13.140625 C23.89793875 16.46986689 22.63941418 18.03566855 19.90942383 20.06689453 C16.27082688 21.84501978 12.58376024 21.51609544 8.625 21.3125 C4.355625 21.1578125 4.355625 21.1578125 0 21 C0 14.07 0 7.14 0 0 Z " fill="#CD0101" transform="translate(467,294)"/>
<path d="M0 0 C3.38532014 2.6159292 4.20608184 5.96541826 5 10 C5.31981446 13.29646834 5.370007 16.5646424 5.375 19.875 C5.39949219 20.72191406 5.42398438 21.56882812 5.44921875 22.44140625 C5.49305302 31.98266573 1.54873915 40.11728967 -5 47 C-18.99636375 58.47753762 -35.465481 58.29495941 -52.6875 58.125 C-54.46809392 58.11494839 -56.24869333 58.1058264 -58.02929688 58.09765625 C-62.35300259 58.07581948 -66.67643926 58.04141037 -71 58 C-71 57.01 -71 56.02 -71 55 C-70.11441406 54.98541748 -69.22882812 54.97083496 -68.31640625 54.95581055 C-34.89257647 55.7684907 -34.89257647 55.7684907 -6.5 40.8125 C1.82725317 30.31669131 1.89967477 18.84950781 1 6 C0.70834459 3.99349851 0.39394638 1.98894881 0 0 Z " fill="#920607" transform="translate(603,302)"/>
<path d="M0 0 C0.66 0 1.32 0 2 0 C6.38225411 7.32712887 6.18831871 15.71103796 5 24 C2.82644877 30.11460566 -1.28948609 33.77657456 -6.77734375 37.02734375 C-14.21375679 40.28159128 -20.90096242 40.24286991 -28.9375 40.125 C-32.918125 40.08375 -36.89875 40.0425 -41 40 C-41 48.91 -41 57.82 -41 67 C-47.93 67 -54.86 67 -62 67 C-62 66.01 -62 65.02 -62 64 C-56.06 64 -50.12 64 -44 64 C-44 55.09 -44 46.18 -44 37 C-40.638125 36.9175 -37.27625 36.835 -33.8125 36.75 C-23.03897958 36.33057166 -11.38978243 35.78094815 -3.30078125 27.671875 C2.11185161 20.71509764 1.54211354 12.4653115 1 4 C0.54817531 1.70355242 0.54817531 1.70355242 0 0 Z " fill="#920406" transform="translate(511,293)"/>
<path d="M0 0 C1.49077515 -0.03280809 2.98231398 -0.03775349 4.47335815 -0.02119446 C5.2883931 -0.03156235 6.10342804 -0.04193024 6.94316101 -0.0526123 C9.64367758 -0.07976258 12.34257791 -0.06999899 15.04318237 -0.05757141 C16.92305962 -0.06348004 18.8029331 -0.07072664 20.68280029 -0.07925415 C24.62897285 -0.09115143 28.57458213 -0.08440446 32.52072144 -0.06513977 C37.56151957 -0.04234082 42.60062208 -0.06892435 47.64125252 -0.11020184 C51.52772341 -0.1358766 55.41379454 -0.13317218 59.30031967 -0.12230873 C61.1573426 -0.12082773 63.01439704 -0.12844599 64.87134171 -0.14555931 C82.40160331 -0.28079282 82.40160331 -0.28079282 88.89202881 5.06295776 C89.96634944 6.13581627 91.02277728 7.22683121 92.0625 8.33325195 C93.40223228 9.86173225 93.40223228 9.86173225 95.51583862 9.71586609 C96.22353394 9.5882489 96.93122925 9.46063171 97.66036987 9.32914734 C98.91849487 9.10227234 100.17661987 8.87539734 101.47286987 8.64164734 C99.84192074 10.61595418 98.50078584 11.62882108 96.16036987 12.70414734 C95.27349487 12.68352234 94.38661987 12.66289734 93.47286987 12.64164734 C92.61946014 11.66630035 91.76605042 10.69095337 90.88677979 9.68605042 C87.67416235 6.35498968 85.29569254 5.92620951 80.76098633 5.83166504 C79.47488968 5.84999641 79.47488968 5.84999641 78.16281128 5.86869812 C76.78624359 5.85275352 76.78624359 5.85275352 75.38186646 5.83648682 C72.36216044 5.80848304 69.3442083 5.82248272 66.32443237 5.83695984 C64.22548906 5.82570752 62.12655833 5.81182593 60.02764893 5.79542542 C54.51362919 5.75938888 49.00016394 5.75901381 43.48605347 5.76609802 C37.85525596 5.76701093 32.22466625 5.73415239 26.59396362 5.70414734 C15.55354096 5.65028634 4.5134094 5.63410318 -6.52713013 5.64164734 C-4.93213256 1.72011069 -4.26650297 0.77615233 0 0 Z " fill="#BAB8B8" transform="translate(462.5271301269531,202.3583526611328)"/>
<path d="M0 0 C2.13519152 0.00373645 4.27038476 0.00658043 6.40557861 0.00857544 C11.98845263 0.01616216 17.57122033 0.03576735 23.15405273 0.0579834 C28.86570803 0.07854943 34.57738074 0.08760003 40.2890625 0.09765625 C51.46879636 0.11901849 62.64845179 0.15309362 73.828125 0.1953125 C73.828125 1.1853125 73.828125 2.1753125 73.828125 3.1953125 C38.188125 3.1953125 2.548125 3.1953125 -34.171875 3.1953125 C-34.171875 2.8653125 -34.171875 2.5353125 -34.171875 2.1953125 C-22.86982788 -0.44190659 -11.53162151 -0.05959985 0 0 Z " fill="#B8B7B7" transform="translate(708.171875,173.8046875)"/>
<path d="M0 0 C0.99 0 1.98 0 3 0 C3 4.95 3 9.9 3 15 C-8.22 15 -19.44 15 -31 15 C-31 25.89 -31 36.78 -31 48 C-37.93 48 -44.86 48 -52 48 C-52 47.01 -52 46.02 -52 45 C-46.06 45 -40.12 45 -34 45 C-34 34.11 -34 23.22 -34 12 C-22.78 12 -11.56 12 0 12 C0 8.04 0 4.08 0 0 Z " fill="#8F0000" transform="translate(677,312)"/>
<path d="M0 0 C0.33 0 0.66 0 1 0 C1 2.97 1 5.94 1 9 C-24.6737147 9.7916448 -50.3143588 10.14205451 -76 10 C-76 9.01 -76 8.02 -76 7 C-59.38760721 5.99535062 -42.82645064 5.87977503 -26.1875 5.9375 C-23.63346443 5.9425305 -21.07942789 5.94709064 -18.52539062 5.95117188 C-12.35023874 5.96204205 -6.17512412 5.97865456 0 6 C0 4.02 0 2.04 0 0 Z " fill="#B8B6B6" transform="translate(792,323)"/>
<path d="M0 0 C20.77088305 0 20.77088305 0 26.73046875 5.63671875 C27.14941406 6.08660156 27.56835938 6.53648437 28 7 C25.69 6.34 23.38 5.68 21 5 C15.06 4.67 9.12 4.34 3 4 C3 17.86 3 31.72 3 46 C2.01 46 1.02 46 0 46 C0 30.82 0 15.64 0 0 Z " fill="#960102" transform="translate(550,295)"/>
<path d="M0 0 C0.99 0 1.98 0 3 0 C3 4.95 3 9.9 3 15 C-8.88 15 -20.76 15 -33 15 C-33 18.63 -33 22.26 -33 26 C-33.99 26 -34.98 26 -36 26 C-36 21.38 -36 16.76 -36 12 C-24.12 12 -12.24 12 0 12 C0 8.04 0 4.08 0 0 Z " fill="#8E0000" transform="translate(679,283)"/>
<path d="M0 0 C-20 10 -20 10 -23.2265625 11.58203125 C-25.39350104 12.68991673 -27.37847828 13.80894929 -29.375 15.1875 C-30.674375 16.0846875 -30.674375 16.0846875 -32 17 C-32.30292969 16.48050781 -32.60585938 15.96101563 -32.91796875 15.42578125 C-35.56363976 11.02175659 -38.20771476 7.46723222 -42 4 C-39 4 -39 4 -36.25 6.5625 C-35.80140625 7.03816406 -35.3528125 7.51382813 -34.890625 8.00390625 C-31.82934177 9.61677241 -29.19000036 8.87535724 -26 8 C-20.95854367 6.20454528 -16.0368785 4.11897915 -11.09765625 2.0625 C-10.10121094 1.65773437 -9.10476563 1.25296875 -8.078125 0.8359375 C-7.17481445 0.46001465 -6.27150391 0.0840918 -5.34082031 -0.30322266 C-3 -1 -3 -1 0 0 Z " fill="#A95957" transform="translate(591,194)"/>
<path d="M0 0 C2.701875 -0.061875 5.40375 -0.12375 8.1875 -0.1875 C9.02949951 -0.21481201 9.87149902 -0.24212402 10.73901367 -0.27026367 C15.34996178 -0.32123457 18.19747817 0.09667171 22 3 C21.67 3.66 21.34 4.32 21 5 C20.01 4.67 19.02 4.34 18 4 C15.43217978 3.77268477 12.88442536 3.58417733 10.3125 3.4375 C7.899375 3.293125 5.48625 3.14875 3 3 C3 8.94 3 14.88 3 21 C2.01 21 1.02 21 0 21 C0 14.07 0 7.14 0 0 Z " fill="#920508" transform="translate(467,294)"/>
<path d="M0 0 C1.33451263 0.11235161 2.67354389 0.17575649 4.01245117 0.20532227 C5.2133564 0.2352401 5.2133564 0.2352401 6.43852234 0.26576233 C7.29798965 0.28247482 8.15745697 0.29918732 9.04296875 0.31640625 C9.9265657 0.33718735 10.81016266 0.35796844 11.72053528 0.37937927 C14.54277785 0.44475754 17.36511335 0.50370528 20.1875 0.5625 C22.10092106 0.60569637 24.01433273 0.64931102 25.92773438 0.69335938 C30.61839437 0.80042695 35.30914783 0.90172752 40 1 C40 1.33 40 1.66 40 2 C23.83 2 7.66 2 -9 2 C-5.96271914 -1.03728086 -4.06215635 -1.35405212 0 0 Z " fill="#E0E0E0" transform="translate(701,172)"/>
<path d="M0 0 C-10 5 -10 5 -20 10 C-20.33 9.34 -20.66 8.68 -21 8 C-20.21625 7.54625 -19.4325 7.0925 -18.625 6.625 C-15.96301969 5.11571258 -15.96301969 5.11571258 -14 3 C-12.21367458 2.20887309 -10.39604848 1.4869926 -8.5625 0.8125 C-7.59441406 0.44769531 -6.62632812 0.08289063 -5.62890625 -0.29296875 C-3 -1 -3 -1 0 0 Z " fill="#B28A89" transform="translate(591,194)"/>
<path d="M0 0 C1.66362417 0.34820041 3.32995171 0.68404492 5 1 C5 1.33 5 1.66 5 2 C0.38 2 -4.24 2 -9 2 C-5.96271914 -1.03728086 -4.06215635 -1.35405212 0 0 Z " fill="#E7E7E7" transform="translate(701,172)"/>
</svg>
